<svg class="svg-icon" style="width: 1em; height: 1em;vertical-align: middle;fill: currentColor;overflow: hidden;" viewBox="0 0 1024 1024" version="1.1" xmlns="http://www.w3.org/2000/svg"><path d="M564.19 678.78a73.07 73.07 0 1 1 73.07-73.07 73.15 73.15 0 0 1-73.07 73.07zM308.46 407.72a47 47 0 1 1 47-47 47 47 0 0 1-47 47z" fill="#91AAFF" /><path d="M308.46 324.21a36.53 36.53 0 1 1-36.53 36.53 36.53 36.53 0 0 1 36.53-36.53m255.73 218.88a62.63 62.63 0 1 1-62.63 62.63 62.63 62.63 0 0 1 62.63-62.63M308.46 303.34a57.41 57.41 0 1 0 57.41 57.41 57.47 57.47 0 0 0-57.41-57.41z m255.73 218.87a83.5 83.5 0 1 0 83.5 83.5 83.6 83.6 0 0 0-83.5-83.5z" fill="#0839FF" /><path d="M699.89 689.24a62.6 62.6 0 1 0 62.63 62.6 62.68 62.68 0 0 0-62.63-62.6z m0 104.32a41.72 41.72 0 1 1 41.75-41.72 41.74 41.74 0 0 1-41.75 41.71zM162.32 835.35a47 47 0 1 0-47-47 47 47 0 0 0 47 47z m0-73.07a26.1 26.1 0 1 1-26.1 26.1 26.1 26.1 0 0 1 26.1-26.09zM814.71 334.65a104.31 104.31 0 1 0-104.39-104.32 104.46 104.46 0 0 0 104.39 104.32z m0-187.75a83.44 83.44 0 1 1-83.51 83.44 83.47 83.47 0 0 1 83.51-83.45zM752.08 585a83.46 83.46 0 1 0-83.51-83.46A83.58 83.58 0 0 0 752.08 585z m0-146a62.58 62.58 0 1 1-62.63 62.58 62.6 62.6 0 0 1 62.63-62.65zM579.85 324.22A78.24 78.24 0 1 0 501.56 246a78.35 78.35 0 0 0 78.29 78.22z m0-135.61A57.37 57.37 0 1 1 522.44 246a57.39 57.39 0 0 1 57.41-57.39zM397.18 689.22a73.07 73.07 0 1 0 73.07 73.07 73.15 73.15 0 0 0-73.07-73.07z m0 125.26a52.19 52.19 0 1 1 52.19-52.19 52.19 52.19 0 0 1-52.19 52.19zM365.87 595.4a62.6 62.6 0 1 0-62.63-62.6 62.68 62.68 0 0 0 62.63 62.6z m0-104.32a41.72 41.72 0 1 1-41.75 41.72 41.74 41.74 0 0 1 41.75-41.72zM198.86 673.56a57.41 57.41 0 1 0 57.41-57.41 57.47 57.47 0 0 0-57.41 57.41zM256.27 637a36.53 36.53 0 1 1-36.53 36.53A36.53 36.53 0 0 1 256.27 637zM506.78 501.53a78.24 78.24 0 1 0-78.29-78.24 78.35 78.35 0 0 0 78.29 78.24z m0-135.61a57.36 57.36 0 1 1-57.41 57.36 57.39 57.39 0 0 1 57.41-57.36zM193.64 543.09a46.81 46.81 0 1 0-47-46.81 46.94 46.94 0 0 0 47 46.81z m0-72.74a25.93 25.93 0 1 1-26.09 25.93 26 26 0 0 1 26.09-25.93z" fill="#979797" /><path d="M950.41 877.11H84v-699a10.44 10.44 0 0 0-20.88 0V898h887.29a10.43 10.43 0 0 0 10.43-10.43 10.43 10.43 0 0 0-10.43-10.46z" fill="#979797" /></svg>