<svg width="256" height="256" viewBox="0 0 256 256" fill="none" xmlns="http://www.w3.org/2000/svg">
<path fill-rule="evenodd" clip-rule="evenodd" d="M145.049 39.3985C144.468 41.0906 140.929 60.1127 140.929 61.5393C140.929 62.2864 143.068 63.421 146.176 64.3229C149.061 65.1598 153.284 66.7888 155.56 67.9434L159.698 70.0421L163.679 63.0529C165.869 59.2089 168.689 54.3 169.949 52.1445L172.239 48.2264L165.19 45.0207C155.881 40.7875 145.56 37.9059 145.049 39.3985ZM168.611 60.9102L161.88 71.6079L164.023 72.9759C165.201 73.7277 168.678 76.721 171.752 79.6273L177.337 84.9116L187.061 77.3555C192.409 73.1993 196.812 69.5339 196.845 69.2107C197.052 67.2201 177.989 49.9726 175.8 50.1713C175.548 50.1942 172.313 55.0271 168.611 60.9102ZM118.148 56.2614C116.703 56.5361 116.184 57.112 116.542 58.0423C116.833 58.7996 117.07 60.0165 117.07 60.7472C117.07 61.8442 118.865 62.0301 127.394 61.8167C137.492 61.5631 137.724 61.51 138.027 59.3719C138.198 58.1696 137.785 56.8373 137.109 56.4097C135.867 55.6241 122.07 55.5151 118.148 56.2614ZM104.223 59.5898C97.3122 62.0392 92.2844 64.5225 92.3138 65.473C92.3248 65.8374 93.0506 67.0635 93.9252 68.198L95.5164 70.2601L102.852 67.0644C106.887 65.3072 110.886 63.8641 111.74 63.8577C113.844 63.8431 114.488 62.5547 113.787 59.7684C113.067 56.9069 111.857 56.884 104.223 59.5898ZM80.3466 68.9708C74.7636 73.941 70.2698 78.7236 70.2698 79.6951C70.2698 79.956 71.9968 81.4376 74.1075 82.986L77.9442 85.8016L83.9723 80.0183C87.2868 76.8373 90.7849 73.8037 91.7448 73.2763C93.4003 72.367 93.3324 72.0978 90.4427 68.0817C88.7661 65.7522 87.1033 63.8467 86.7482 63.8467C86.3921 63.8467 83.5116 66.1524 80.3466 68.9708ZM189.568 79.5449C184.774 83.0455 180.502 86.2586 180.074 86.6862C179.645 87.1138 180.961 90.2206 182.998 93.5903C185.035 96.9599 186.965 100.917 187.288 102.384C187.611 103.851 188.34 105.052 188.908 105.052C189.476 105.052 194.606 103.52 200.306 101.648C207.623 99.2445 210.671 97.8243 210.671 96.8162C210.671 94.9391 201.046 75.4446 199.49 74.17C198.573 73.4182 196.19 74.7093 189.568 79.5449ZM58.299 82.4943C54.867 87.7245 49.6519 100.34 50.543 101.257C50.8568 101.581 54.7018 102.932 59.0863 104.259L67.058 106.671L70.0432 100.242C71.6848 96.7054 73.8092 92.53 74.7636 90.9623L76.4989 88.1119L68.942 82.9521L61.3851 77.7914L58.299 82.4943ZM199.685 105.158C194.399 106.667 189.957 108.018 189.813 108.162C189.365 108.608 191.658 127.452 192.234 128.059C192.533 128.374 197.629 128.906 203.559 129.24L214.342 129.85V123.112C214.342 117.11 213.25 108.395 211.935 103.907C211.337 101.866 211.157 101.884 199.685 105.158ZM44.7342 109.964C44.1423 113.17 43.6578 119.389 43.6578 123.785V131.778L48.0166 131.256C50.4136 130.969 55.1065 130.476 58.4449 130.161L64.5143 129.588L65.1713 121.669C65.5329 117.314 65.899 112.765 65.9844 111.56C66.1294 109.527 65.4457 109.181 56.505 106.761C51.2055 105.326 46.631 104.149 46.3401 104.144C46.0483 104.14 45.3261 106.758 44.7342 109.964ZM190.483 133.567C190.483 135.379 188.276 143.933 186.261 149.928C185.959 150.827 186.697 151.671 188.369 152.336C189.784 152.899 194.942 155.238 199.83 157.534L208.719 161.708L211.054 155.585C213.846 148.264 216.564 136.681 215.898 134.948C215.601 134.174 213.227 133.498 209.605 133.153C188.82 131.17 190.483 131.134 190.483 133.567ZM62.4697 132.986C61.965 133.157 56.7032 133.79 50.776 134.391L40 135.486L40.5699 139.269C41.3389 144.384 46.0666 159.172 47.6028 161.268C48.7774 162.871 49.395 162.695 59.725 157.795C65.7118 154.955 70.7727 152.469 70.9727 152.27C71.1728 152.07 70.8066 150.945 70.1588 149.769C69.5118 148.592 68.1023 144.357 67.0277 140.356C65.152 133.373 64.4886 132.301 62.4697 132.986ZM181.945 157.474C180.686 159.614 177.971 163.273 175.91 165.606L172.165 169.848L183.752 181.909L195.34 193.971L198.52 190.945C203.492 186.213 215.227 169.533 214.154 168.722C213.681 168.364 184.68 153.582 184.452 153.582C184.332 153.582 183.204 155.333 181.945 157.474ZM58.7229 162.002C51.1945 166.062 44.669 169.716 44.2221 170.123C43.0943 171.148 52.6389 185.139 58.0989 190.463L62.5854 194.838L73.7973 182.814L85.0092 170.788L81.2872 166.759C79.2399 164.542 76.4053 160.905 74.9884 158.675L72.4116 154.62L58.7229 162.002ZM166.165 174.802C164.146 176.331 160.357 178.797 157.745 180.282L152.996 182.981L157.869 194.607C165.029 211.682 166.502 214.932 167.081 214.932C168.425 214.932 177.831 209.666 183.727 205.613C194.95 197.896 195.115 199.658 181.778 184.801C175.407 177.702 170.113 171.924 170.014 171.958C169.916 171.992 168.184 173.271 166.165 174.802ZM75.8427 185.665C69.7495 192.748 64.7639 198.914 64.7639 199.366C64.7639 201.848 89.9609 216.71 91.5246 215.149C92.4202 214.256 104.438 183.686 104.029 183.34C103.884 183.217 102.319 182.395 100.552 181.513C98.786 180.632 95.4824 178.601 93.2112 177C90.94 175.399 88.5954 173.796 88.0017 173.437C87.3235 173.028 82.8022 177.574 75.8427 185.665ZM142.765 185.703C139.484 186.601 135.195 187.364 133.234 187.399L129.668 187.462L130.252 191.71C130.573 194.046 130.835 200.286 130.835 205.576V215.194L137.068 214.617C144.015 213.972 157.371 210.795 158.698 209.471C159.66 208.512 150.969 184.455 149.573 184.214C149.108 184.133 146.045 184.803 142.765 185.703ZM106.269 187.233C105.78 188.617 103.643 194.643 101.519 200.621C99.3944 206.601 97.9986 211.809 98.4162 212.195C100.167 213.813 110.776 216.081 118.676 216.524L127.165 217V202.23V187.462L123.723 187.447C121.831 187.44 117.804 186.836 114.776 186.106C107.397 184.328 107.286 184.343 106.269 187.233Z" fill="#0771ED"/>
</svg>
